<?xml version="1.0" encoding="UTF-8" standalone="no"?>
<!DOCTYPE svg PUBLIC "-//W3C//DTD SVG 1.1//EN"
 "http://www.w3.org/Graphics/SVG/1.1/DTD/svg11.dtd">
<!-- Generated by graphviz version 2.40.1 (20161225.0304)
 -->
<!-- Title: dependencies Pages: 1 -->
<svg width="556pt" height="284pt"
 viewBox="0.00 0.00 556.00 284.00" xmlns="http://www.w3.org/2000/svg" xmlns:xlink="http://www.w3.org/1999/xlink">
<g id="graph0" class="graph" transform="scale(1 1) rotate(0) translate(4 280)">
<title>dependencies</title>
<polygon fill="#ffffff" stroke="transparent" points="-4,4 -4,-280 552,-280 552,4 -4,4"/>
<text text-anchor="start" x="253.0091" y="-42.4" font-family="sans-serif" font-weight="bold" font-size="14.00" fill="#000000">Legend</text>
<polygon fill="#ffffb3" stroke="transparent" points="40,-10 40,-30 60,-30 60,-10 40,-10"/>
<text text-anchor="start" x="63.629" y="-15.4" font-family="sans-serif" font-size="14.00" fill="#000000"> &#160;Declarations</text>
<polygon fill="#8dd3c7" stroke="transparent" points="153,-10 153,-30 173,-30 173,-10 153,-10"/>
<text text-anchor="start" x="176.7251" y="-15.4" font-family="sans-serif" font-size="14.00" fill="#000000"> &#160;Module</text>
<polygon fill="#80b1d3" stroke="transparent" points="239,-10 239,-30 259,-30 259,-10 239,-10"/>
<text text-anchor="start" x="262.7812" y="-15.4" font-family="sans-serif" font-size="14.00" fill="#000000"> &#160;Bootstrap</text>
<polygon fill="#fdb462" stroke="transparent" points="336,-10 336,-30 356,-30 356,-10 336,-10"/>
<text text-anchor="start" x="359.6732" y="-15.4" font-family="sans-serif" font-size="14.00" fill="#000000"> &#160;Providers</text>
<polygon fill="#fb8072" stroke="transparent" points="432,-10 432,-30 452,-30 452,-10 432,-10"/>
<text text-anchor="start" x="455.7258" y="-15.4" font-family="sans-serif" font-size="14.00" fill="#000000"> &#160;Exports</text>
<g id="clust1" class="cluster">
<title>cluster_ModuloEmailModule</title>
<polygon fill="none" stroke="#000000" stroke-dasharray="1,5" points="8,-70 8,-268 540,-268 540,-70 8,-70"/>
</g>
<g id="clust2" class="cluster">
<title>cluster_ModuloEmailModule_declarations</title>
<polygon fill="none" stroke="#000000" points="16,-78 16,-130 532,-130 532,-78 16,-78"/>
</g>
<g id="clust7" class="cluster">
<title>cluster_ModuloEmailModule_exports</title>
<polygon fill="none" stroke="#000000" points="192,-208 192,-260 356,-260 356,-208 192,-208"/>
</g>
<!-- GuardarEmailComponent -->
<g id="node1" class="node">
<title>GuardarEmailComponent</title>
<polygon fill="#ffffb3" stroke="#000000" points="524.1288,-122 363.8712,-122 363.8712,-86 524.1288,-86 524.1288,-122"/>
<text text-anchor="middle" x="444" y="-99.8" font-family="Times,serif" font-size="14.00" fill="#000000">GuardarEmailComponent</text>
</g>
<!-- ModuloEmailModule -->
<g id="node4" class="node">
<title>ModuloEmailModule</title>
<polygon fill="#8dd3c7" stroke="#000000" points="342.8244,-187 339.8244,-191 318.8244,-191 315.8244,-187 205.1756,-187 205.1756,-151 342.8244,-151 342.8244,-187"/>
<text text-anchor="middle" x="274" y="-164.8" font-family="Times,serif" font-size="14.00" fill="#000000">ModuloEmailModule</text>
</g>
<!-- GuardarEmailComponent&#45;&gt;ModuloEmailModule -->
<g id="edge1" class="edge">
<title>GuardarEmailComponent&#45;&gt;ModuloEmailModule</title>
<path fill="none" stroke="#000000" d="M444,-122.1061C444,-141.3391 444,-169 444,-169 444,-169 353.1455,-169 353.1455,-169"/>
<polygon fill="#000000" stroke="#000000" points="353.1455,-165.5001 343.1455,-169 353.1455,-172.5001 353.1455,-165.5001"/>
</g>
<!-- MainEmailComponent -->
<g id="node2" class="node">
<title>MainEmailComponent</title>
<polygon fill="#ffffb3" stroke="#000000" points="346.3216,-122 201.6784,-122 201.6784,-86 346.3216,-86 346.3216,-122"/>
<text text-anchor="middle" x="274" y="-99.8" font-family="Times,serif" font-size="14.00" fill="#000000">MainEmailComponent</text>
</g>
<!-- MainEmailComponent&#45;&gt;ModuloEmailModule -->
<g id="edge2" class="edge">
<title>MainEmailComponent&#45;&gt;ModuloEmailModule</title>
<path fill="none" stroke="#000000" d="M274,-122.1061C274,-122.1061 274,-140.991 274,-140.991"/>
<polygon fill="#000000" stroke="#000000" points="270.5001,-140.9909 274,-150.991 277.5001,-140.991 270.5001,-140.9909"/>
</g>
<!-- MostrarEmailComponent -->
<g id="node3" class="node">
<title>MostrarEmailComponent</title>
<polygon fill="#ffffb3" stroke="#000000" points="183.587,-122 24.413,-122 24.413,-86 183.587,-86 183.587,-122"/>
<text text-anchor="middle" x="104" y="-99.8" font-family="Times,serif" font-size="14.00" fill="#000000">MostrarEmailComponent</text>
</g>
<!-- MostrarEmailComponent&#45;&gt;ModuloEmailModule -->
<g id="edge3" class="edge">
<title>MostrarEmailComponent&#45;&gt;ModuloEmailModule</title>
<path fill="none" stroke="#000000" d="M104,-122.1061C104,-141.3391 104,-169 104,-169 104,-169 194.8545,-169 194.8545,-169"/>
<polygon fill="#000000" stroke="#000000" points="194.8545,-172.5001 204.8545,-169 194.8545,-165.5001 194.8545,-172.5001"/>
</g>
<!-- MainEmailComponent  -->
<g id="node5" class="node">
<title>MainEmailComponent </title>
<polygon fill="#fb8072" stroke="#000000" points="347.8213,-252 200.1787,-252 200.1787,-216 347.8213,-216 347.8213,-252"/>
<text text-anchor="middle" x="274" y="-229.8" font-family="Times,serif" font-size="14.00" fill="#000000">MainEmailComponent </text>
</g>
<!-- ModuloEmailModule&#45;&gt;MainEmailComponent  -->
<g id="edge4" class="edge">
<title>ModuloEmailModule&#45;&gt;MainEmailComponent </title>
<path fill="none" stroke="#000000" stroke-dasharray="5,2" d="M274,-187.1061C274,-187.1061 274,-205.991 274,-205.991"/>
<polygon fill="#000000" stroke="#000000" points="270.5001,-205.9909 274,-215.991 277.5001,-205.991 270.5001,-205.9909"/>
</g>
</g>
</svg>
