<?xml version="1.0" encoding="UTF-8" standalone="no"?>
<!DOCTYPE svg PUBLIC "-//W3C//DTD SVG 1.1//EN"
 "http://www.w3.org/Graphics/SVG/1.1/DTD/svg11.dtd">
<!-- Generated by graphviz version 2.40.1 (20161225.0304)
 -->
<!-- Title: dependencies Pages: 1 -->
<svg width="2344pt" height="284pt"
 viewBox="0.00 0.00 2344.00 284.00" xmlns="http://www.w3.org/2000/svg" xmlns:xlink="http://www.w3.org/1999/xlink">
<g id="graph0" class="graph" transform="scale(1 1) rotate(0) translate(4 280)">
<title>dependencies</title>
<polygon fill="#ffffff" stroke="transparent" points="-4,4 -4,-280 2340,-280 2340,4 -4,4"/>
<text text-anchor="start" x="1147.0091" y="-42.4" font-family="sans-serif" font-weight="bold" font-size="14.00" fill="#000000">Legend</text>
<polygon fill="#ffffb3" stroke="transparent" points="934,-10 934,-30 954,-30 954,-10 934,-10"/>
<text text-anchor="start" x="957.629" y="-15.4" font-family="sans-serif" font-size="14.00" fill="#000000"> &#160;Declarations</text>
<polygon fill="#8dd3c7" stroke="transparent" points="1047,-10 1047,-30 1067,-30 1067,-10 1047,-10"/>
<text text-anchor="start" x="1070.7251" y="-15.4" font-family="sans-serif" font-size="14.00" fill="#000000"> &#160;Module</text>
<polygon fill="#80b1d3" stroke="transparent" points="1133,-10 1133,-30 1153,-30 1153,-10 1133,-10"/>
<text text-anchor="start" x="1156.7812" y="-15.4" font-family="sans-serif" font-size="14.00" fill="#000000"> &#160;Bootstrap</text>
<polygon fill="#fdb462" stroke="transparent" points="1230,-10 1230,-30 1250,-30 1250,-10 1230,-10"/>
<text text-anchor="start" x="1253.6732" y="-15.4" font-family="sans-serif" font-size="14.00" fill="#000000"> &#160;Providers</text>
<polygon fill="#fb8072" stroke="transparent" points="1326,-10 1326,-30 1346,-30 1346,-10 1326,-10"/>
<text text-anchor="start" x="1349.7258" y="-15.4" font-family="sans-serif" font-size="14.00" fill="#000000"> &#160;Exports</text>
<g id="clust1" class="cluster">
<title>cluster_AppModule</title>
<polygon fill="none" stroke="#000000" stroke-dasharray="1,5" points="8,-70 8,-268 2328,-268 2328,-70 8,-70"/>
</g>
<g id="clust2" class="cluster">
<title>cluster_AppModule_declarations</title>
<polygon fill="none" stroke="#000000" points="745,-78 745,-130 2320,-130 2320,-78 745,-78"/>
</g>
<g id="clust14" class="cluster">
<title>cluster_AppModule_imports</title>
<polygon fill="none" stroke="#000000" points="467,-78 467,-130 737,-130 737,-78 467,-78"/>
</g>
<g id="clust16" class="cluster">
<title>cluster_AppModule_bootstrap</title>
<polygon fill="none" stroke="#000000" points="1115,-208 1115,-260 1239,-260 1239,-208 1115,-208"/>
</g>
<g id="clust17" class="cluster">
<title>cluster_AppModule_providers</title>
<polygon fill="none" stroke="#000000" points="16,-78 16,-130 459,-130 459,-78 16,-78"/>
</g>
<!-- AnimalDetailComponent -->
<g id="node1" class="node">
<title>AnimalDetailComponent</title>
<polygon fill="#ffffb3" stroke="#000000" points="2311.5337,-122 2154.4663,-122 2154.4663,-86 2311.5337,-86 2311.5337,-122"/>
<text text-anchor="middle" x="2233" y="-99.8" font-family="Times,serif" font-size="14.00" fill="#000000">AnimalDetailComponent</text>
</g>
<!-- AppModule -->
<g id="node12" class="node">
<title>AppModule</title>
<polygon fill="#8dd3c7" stroke="#000000" points="1218.6571,-187 1215.6571,-191 1194.6571,-191 1191.6571,-187 1135.3429,-187 1135.3429,-151 1218.6571,-151 1218.6571,-187"/>
<text text-anchor="middle" x="1177" y="-164.8" font-family="Times,serif" font-size="14.00" fill="#000000">AppModule</text>
</g>
<!-- AnimalDetailComponent&#45;&gt;AppModule -->
<g id="edge1" class="edge">
<title>AnimalDetailComponent&#45;&gt;AppModule</title>
<path fill="none" stroke="#000000" d="M2233,-122.3228C2233,-145.6602 2233,-183 2233,-183 2233,-183 1228.7217,-183 1228.7217,-183"/>
<polygon fill="#000000" stroke="#000000" points="1228.7217,-179.5001 1218.7217,-183 1228.7217,-186.5001 1228.7217,-179.5001"/>
</g>
<!-- AnimalsComponent -->
<g id="node2" class="node">
<title>AnimalsComponent</title>
<polygon fill="#ffffb3" stroke="#000000" points="2136.2702,-122 2007.7298,-122 2007.7298,-86 2136.2702,-86 2136.2702,-122"/>
<text text-anchor="middle" x="2072" y="-99.8" font-family="Times,serif" font-size="14.00" fill="#000000">AnimalsComponent</text>
</g>
<!-- AnimalsComponent&#45;&gt;AppModule -->
<g id="edge2" class="edge">
<title>AnimalsComponent&#45;&gt;AppModule</title>
<path fill="none" stroke="#000000" d="M2072,-122.2921C2072,-144.2057 2072,-178 2072,-178 2072,-178 1228.6695,-178 1228.6695,-178"/>
<polygon fill="#000000" stroke="#000000" points="1228.6696,-174.5001 1218.6695,-178 1228.6695,-181.5001 1228.6696,-174.5001"/>
</g>
<!-- AppComponent -->
<g id="node3" class="node">
<title>AppComponent</title>
<polygon fill="#ffffb3" stroke="#000000" points="1989.9399,-122 1884.0601,-122 1884.0601,-86 1989.9399,-86 1989.9399,-122"/>
<text text-anchor="middle" x="1937" y="-99.8" font-family="Times,serif" font-size="14.00" fill="#000000">AppComponent</text>
</g>
<!-- AppComponent&#45;&gt;AppModule -->
<g id="edge3" class="edge">
<title>AppComponent&#45;&gt;AppModule</title>
<path fill="none" stroke="#000000" d="M1937,-122.0267C1937,-142.7672 1937,-174 1937,-174 1937,-174 1228.6717,-174 1228.6717,-174"/>
<polygon fill="#000000" stroke="#000000" points="1228.6717,-170.5001 1218.6717,-174 1228.6716,-177.5001 1228.6717,-170.5001"/>
</g>
<!-- ContactComponent -->
<g id="node4" class="node">
<title>ContactComponent</title>
<polygon fill="#ffffb3" stroke="#000000" points="1866.3795,-122 1741.6205,-122 1741.6205,-86 1866.3795,-86 1866.3795,-122"/>
<text text-anchor="middle" x="1804" y="-99.8" font-family="Times,serif" font-size="14.00" fill="#000000">ContactComponent</text>
</g>
<!-- ContactComponent&#45;&gt;AppModule -->
<g id="edge4" class="edge">
<title>ContactComponent&#45;&gt;AppModule</title>
<path fill="none" stroke="#000000" d="M1804,-122.1061C1804,-141.3391 1804,-169 1804,-169 1804,-169 1229.1128,-169 1229.1128,-169"/>
<polygon fill="#000000" stroke="#000000" points="1229.1129,-165.5001 1219.1128,-169 1229.1128,-172.5001 1229.1129,-165.5001"/>
</g>
<!-- HomeComponent -->
<g id="node5" class="node">
<title>HomeComponent</title>
<polygon fill="#ffffb3" stroke="#000000" points="1723.5451,-122 1608.4549,-122 1608.4549,-86 1723.5451,-86 1723.5451,-122"/>
<text text-anchor="middle" x="1666" y="-99.8" font-family="Times,serif" font-size="14.00" fill="#000000">HomeComponent</text>
</g>
<!-- HomeComponent&#45;&gt;AppModule -->
<g id="edge5" class="edge">
<title>HomeComponent&#45;&gt;AppModule</title>
<path fill="none" stroke="#000000" d="M1666,-122.302C1666,-140.2699 1666,-165 1666,-165 1666,-165 1228.6919,-165 1228.6919,-165"/>
<polygon fill="#000000" stroke="#000000" points="1228.6919,-161.5001 1218.6919,-165 1228.6918,-168.5001 1228.6919,-161.5001"/>
</g>
<!-- KeepersComponent -->
<g id="node6" class="node">
<title>KeepersComponent</title>
<polygon fill="#ffffb3" stroke="#000000" points="1590.6881,-122 1463.3119,-122 1463.3119,-86 1590.6881,-86 1590.6881,-122"/>
<text text-anchor="middle" x="1527" y="-99.8" font-family="Times,serif" font-size="14.00" fill="#000000">KeepersComponent</text>
</g>
<!-- KeepersComponent&#45;&gt;AppModule -->
<g id="edge6" class="edge">
<title>KeepersComponent&#45;&gt;AppModule</title>
<path fill="none" stroke="#000000" d="M1527,-122.027C1527,-138.3976 1527,-160 1527,-160 1527,-160 1228.8705,-160 1228.8705,-160"/>
<polygon fill="#000000" stroke="#000000" points="1228.8706,-156.5001 1218.8705,-160 1228.8705,-163.5001 1228.8706,-156.5001"/>
</g>
<!-- LoginComponent -->
<g id="node7" class="node">
<title>LoginComponent</title>
<polygon fill="#ffffb3" stroke="#000000" points="1445.2758,-122 1330.7242,-122 1330.7242,-86 1445.2758,-86 1445.2758,-122"/>
<text text-anchor="middle" x="1388" y="-99.8" font-family="Times,serif" font-size="14.00" fill="#000000">LoginComponent</text>
</g>
<!-- LoginComponent&#45;&gt;AppModule -->
<g id="edge7" class="edge">
<title>LoginComponent&#45;&gt;AppModule</title>
<path fill="none" stroke="#000000" d="M1388,-122.1871C1388,-137.1824 1388,-156 1388,-156 1388,-156 1228.6868,-156 1228.6868,-156"/>
<polygon fill="#000000" stroke="#000000" points="1228.6868,-152.5001 1218.6868,-156 1228.6868,-159.5001 1228.6868,-152.5001"/>
</g>
<!-- ParquesComponent -->
<g id="node8" class="node">
<title>ParquesComponent</title>
<polygon fill="#ffffb3" stroke="#000000" points="1312.6499,-122 1187.3501,-122 1187.3501,-86 1312.6499,-86 1312.6499,-122"/>
<text text-anchor="middle" x="1250" y="-99.8" font-family="Times,serif" font-size="14.00" fill="#000000">ParquesComponent</text>
</g>
<!-- ParquesComponent&#45;&gt;AppModule -->
<g id="edge8" class="edge">
<title>ParquesComponent&#45;&gt;AppModule</title>
<path fill="none" stroke="#000000" d="M1203.0017,-122.1061C1203.0017,-122.1061 1203.0017,-140.991 1203.0017,-140.991"/>
<polygon fill="#000000" stroke="#000000" points="1199.5018,-140.9909 1203.0017,-150.991 1206.5018,-140.991 1199.5018,-140.9909"/>
</g>
<!-- RegisterComponent -->
<g id="node9" class="node">
<title>RegisterComponent</title>
<polygon fill="#ffffb3" stroke="#000000" points="1168.9846,-122 1041.0154,-122 1041.0154,-86 1168.9846,-86 1168.9846,-122"/>
<text text-anchor="middle" x="1105" y="-99.8" font-family="Times,serif" font-size="14.00" fill="#000000">RegisterComponent</text>
</g>
<!-- RegisterComponent&#45;&gt;AppModule -->
<g id="edge9" class="edge">
<title>RegisterComponent&#45;&gt;AppModule</title>
<path fill="none" stroke="#000000" d="M1152.0821,-122.1061C1152.0821,-122.1061 1152.0821,-140.991 1152.0821,-140.991"/>
<polygon fill="#000000" stroke="#000000" points="1148.5821,-140.9909 1152.0821,-150.991 1155.5821,-140.991 1148.5821,-140.9909"/>
</g>
<!-- TiendaComponent -->
<g id="node10" class="node">
<title>TiendaComponent</title>
<polygon fill="#ffffb3" stroke="#000000" points="1023.205,-122 902.795,-122 902.795,-86 1023.205,-86 1023.205,-122"/>
<text text-anchor="middle" x="963" y="-99.8" font-family="Times,serif" font-size="14.00" fill="#000000">TiendaComponent</text>
</g>
<!-- TiendaComponent&#45;&gt;AppModule -->
<g id="edge10" class="edge">
<title>TiendaComponent&#45;&gt;AppModule</title>
<path fill="none" stroke="#000000" d="M963,-122.1871C963,-137.1824 963,-156 963,-156 963,-156 1125.2306,-156 1125.2306,-156"/>
<polygon fill="#000000" stroke="#000000" points="1125.2307,-159.5001 1135.2306,-156 1125.2306,-152.5001 1125.2307,-159.5001"/>
</g>
<!-- UserEditComponent -->
<g id="node11" class="node">
<title>UserEditComponent</title>
<polygon fill="#ffffb3" stroke="#000000" points="884.5926,-122 753.4074,-122 753.4074,-86 884.5926,-86 884.5926,-122"/>
<text text-anchor="middle" x="819" y="-99.8" font-family="Times,serif" font-size="14.00" fill="#000000">UserEditComponent</text>
</g>
<!-- UserEditComponent&#45;&gt;AppModule -->
<g id="edge11" class="edge">
<title>UserEditComponent&#45;&gt;AppModule</title>
<path fill="none" stroke="#000000" d="M819,-122.027C819,-138.3976 819,-160 819,-160 819,-160 1125.2322,-160 1125.2322,-160"/>
<polygon fill="#000000" stroke="#000000" points="1125.2322,-163.5001 1135.2322,-160 1125.2322,-156.5001 1125.2322,-163.5001"/>
</g>
<!-- AppComponent  -->
<g id="node15" class="node">
<title>AppComponent </title>
<polygon fill="#80b1d3" stroke="#000000" points="1231.439,-252 1122.561,-252 1122.561,-216 1231.439,-216 1231.439,-252"/>
<text text-anchor="middle" x="1177" y="-229.8" font-family="Times,serif" font-size="14.00" fill="#000000">AppComponent </text>
</g>
<!-- AppModule&#45;&gt;AppComponent  -->
<g id="edge14" class="edge">
<title>AppModule&#45;&gt;AppComponent </title>
<path fill="none" stroke="#000000" stroke-dasharray="1,5" d="M1177,-187.1061C1177,-187.1061 1177,-205.991 1177,-205.991"/>
<polygon fill="#000000" stroke="#000000" points="1173.5001,-205.9909 1177,-215.991 1180.5001,-205.991 1173.5001,-205.9909"/>
</g>
<!-- AdminModule -->
<g id="node13" class="node">
<title>AdminModule</title>
<polygon fill="#8dd3c7" stroke="#000000" points="729.4386,-122 726.4386,-126 705.4386,-126 702.4386,-122 630.5614,-122 630.5614,-86 729.4386,-86 729.4386,-122"/>
<text text-anchor="middle" x="680" y="-99.8" font-family="Times,serif" font-size="14.00" fill="#000000">AdminModule</text>
</g>
<!-- AdminModule&#45;&gt;AppModule -->
<g id="edge12" class="edge">
<title>AdminModule&#45;&gt;AppModule</title>
<path fill="none" stroke="#000000" d="M680,-122.302C680,-140.2699 680,-165 680,-165 680,-165 1125.0544,-165 1125.0544,-165"/>
<polygon fill="#000000" stroke="#000000" points="1125.0544,-168.5001 1135.0544,-165 1125.0544,-161.5001 1125.0544,-168.5001"/>
</g>
<!-- ModuloEmailModule -->
<g id="node14" class="node">
<title>ModuloEmailModule</title>
<polygon fill="#8dd3c7" stroke="#000000" points="612.8244,-122 609.8244,-126 588.8244,-126 585.8244,-122 475.1756,-122 475.1756,-86 612.8244,-86 612.8244,-122"/>
<text text-anchor="middle" x="544" y="-99.8" font-family="Times,serif" font-size="14.00" fill="#000000">ModuloEmailModule</text>
</g>
<!-- ModuloEmailModule&#45;&gt;AppModule -->
<g id="edge13" class="edge">
<title>ModuloEmailModule&#45;&gt;AppModule</title>
<path fill="none" stroke="#000000" d="M544,-122.1061C544,-141.3391 544,-169 544,-169 544,-169 1124.9769,-169 1124.9769,-169"/>
<polygon fill="#000000" stroke="#000000" points="1124.9769,-172.5001 1134.9769,-169 1124.9768,-165.5001 1124.9769,-172.5001"/>
</g>
<!-- AnimalService -->
<g id="node16" class="node">
<title>AnimalService</title>
<ellipse fill="#fdb462" stroke="#000000" cx="382" cy="-104" rx="68.9158" ry="18"/>
<text text-anchor="middle" x="382" y="-99.8" font-family="Times,serif" font-size="14.00" fill="#000000">AnimalService</text>
</g>
<!-- AnimalService&#45;&gt;AppModule -->
<g id="edge15" class="edge">
<title>AnimalService&#45;&gt;AppModule</title>
<path fill="none" stroke="#000000" d="M382,-122.0267C382,-142.7672 382,-174 382,-174 382,-174 1125.0981,-174 1125.0981,-174"/>
<polygon fill="#000000" stroke="#000000" points="1125.0981,-177.5001 1135.0981,-174 1125.098,-170.5001 1125.0981,-177.5001"/>
</g>
<!-- UploadService -->
<g id="node17" class="node">
<title>UploadService</title>
<ellipse fill="#fdb462" stroke="#000000" cx="227" cy="-104" rx="68.3382" ry="18"/>
<text text-anchor="middle" x="227" y="-99.8" font-family="Times,serif" font-size="14.00" fill="#000000">UploadService</text>
</g>
<!-- UploadService&#45;&gt;AppModule -->
<g id="edge16" class="edge">
<title>UploadService&#45;&gt;AppModule</title>
<path fill="none" stroke="#000000" d="M227,-122.2921C227,-144.2057 227,-178 227,-178 227,-178 1125.2619,-178 1125.2619,-178"/>
<polygon fill="#000000" stroke="#000000" points="1125.2619,-181.5001 1135.2619,-178 1125.2618,-174.5001 1125.2619,-181.5001"/>
</g>
<!-- UserService -->
<g id="node18" class="node">
<title>UserService</title>
<ellipse fill="#fdb462" stroke="#000000" cx="82" cy="-104" rx="58.4415" ry="18"/>
<text text-anchor="middle" x="82" y="-99.8" font-family="Times,serif" font-size="14.00" fill="#000000">UserService</text>
</g>
<!-- UserService&#45;&gt;AppModule -->
<g id="edge17" class="edge">
<title>UserService&#45;&gt;AppModule</title>
<path fill="none" stroke="#000000" d="M82,-122.3228C82,-145.6602 82,-183 82,-183 82,-183 1125.0793,-183 1125.0793,-183"/>
<polygon fill="#000000" stroke="#000000" points="1125.0794,-186.5001 1135.0793,-183 1125.0793,-179.5001 1125.0794,-186.5001"/>
</g>
</g>
</svg>
